<svg xmlns="http://www.w3.org/2000/svg" viewBox="0 0 284.26 276.31"><defs><style>.cls-1{fill:#9acaeb;}.cls-2{fill:#0075c9;}</style></defs><title>アセット 1</title><g id="レイヤー_2" data-name="レイヤー 2"><g id="レイヤー_5" data-name="レイヤー 5"><path class="cls-1" d="M219.44,230.23c-30.12,12.2-39.58,13.4-39.58,13.4,24.33,9.78,63.39,17.79,83,19.72.09,0,10.56.94,14.48,1.17h0c1.23.12,1.93.57,2.14,1.35a1.62,1.62,0,0,1-.69,1.76c-3.23,2.33-17.31,4.68-18.91,4.94-24.87,3.84-48.64,4.72-70.68,2.61h0c-41.09-3.93-76.35-18-104.82-41.68C61.87,214.75,44.34,190,35,163.86c-17.87-50.08-10.42-127-5-143.64C36,1.54,52.94.36,53.12.33A56.4,56.4,0,0,1,65.7.38c18.63,1.78,36.43,11.56,50.13,27.52,12.28,14.32,19.6,32.52,20.5,49.57,2,38.12-28.91,94.8-27.89,93.08,0,0,48.36-43.32,114.93-41.89,0,0,33.21-.32,49.46,14.56,0,0,9,7.28,10.91,16.5,0,0,6.84,25.46-28.84,51.14C254.9,210.86,242.4,220.93,219.44,230.23Z"/><path class="cls-2" d="M189.12,271c-41.28,0-77.71-10.6-108.31-31.51C56.63,222.94,36.83,200,25,174.83,2.49,126.68-2.64,58.59,1.13,41.5c4.22-19.17,21-22,21.15-22a69.21,69.21,0,0,1,12.53-1.15c18.71,0,37.37,8,52.52,22.62,13.59,13.08,23.27,30.19,26.55,47,8.13,41.48-4.49,76.27-11.83,91.92,11.84-11.17,27-20.37,44.27-26.87a169.14,169.14,0,0,1,58-10.62c27.11,0,48.11,7.5,54.81,19.58,3.85,6.93,3,15.19-2.4,23.88-.76,1.23-13.26,26.34-76.12,57.66,25.15,7.42,61,8.66,80.71,8.71.09,0,10.61-.07,14.52-.21h0c1.23,0,2,.38,2.26,1.14a1.63,1.63,0,0,1-.52,1.82c-3,2.63-16.79,6.31-18.35,6.72-24.39,6.19-48,9.33-70.11,9.33Z"/></g></g></svg>